<mxfile host="app.diagrams.net" modified="2021-05-27T06:38:19.732Z" agent="5.0 (Macintosh; Intel Mac OS X 10_14_4) AppleWebKit/537.36 (KHTML, like Gecko) Chrome/90.0.4430.212 Safari/537.36" etag="HC5AAOJGASLmi5keutrn" version="14.7.2" type="github">
  <diagram id="6mHEtAGcMzhpT5VHvflu" name="Page-1">
    <mxGraphModel dx="1773" dy="1792" grid="1" gridSize="10" guides="1" tooltips="1" connect="1" arrows="1" fold="1" page="1" pageScale="1" pageWidth="827" pageHeight="1169" math="0" shadow="0">
      <root>
        <mxCell id="0" />
        <mxCell id="1" parent="0" />
        <mxCell id="u0kvqzSaH0CHyrP6EFvl-1" value="" style="rounded=0;whiteSpace=wrap;html=1;direction=south;movable=1;resizable=1;rotatable=1;deletable=1;editable=1;connectable=1;" vertex="1" parent="1">
          <mxGeometry x="-520" y="-170" width="840" height="1010" as="geometry" />
        </mxCell>
        <mxCell id="u0kvqzSaH0CHyrP6EFvl-2" value="技术架构" style="rounded=0;whiteSpace=wrap;html=1;" vertex="1" parent="1">
          <mxGeometry x="-520" y="-170" width="100" height="40" as="geometry" />
        </mxCell>
        <mxCell id="u0kvqzSaH0CHyrP6EFvl-3" value="" style="rounded=0;whiteSpace=wrap;html=1;" vertex="1" parent="1">
          <mxGeometry x="-490" y="-120" width="780" height="50" as="geometry" />
        </mxCell>
        <mxCell id="u0kvqzSaH0CHyrP6EFvl-4" value="前端" style="rounded=0;whiteSpace=wrap;html=1;" vertex="1" parent="1">
          <mxGeometry x="-490" y="-120" width="60" height="50" as="geometry" />
        </mxCell>
        <mxCell id="u0kvqzSaH0CHyrP6EFvl-5" value="" style="rounded=0;whiteSpace=wrap;html=1;" vertex="1" parent="1">
          <mxGeometry x="-490" y="-40" width="780" height="50" as="geometry" />
        </mxCell>
        <mxCell id="u0kvqzSaH0CHyrP6EFvl-6" value="API安全" style="rounded=0;whiteSpace=wrap;html=1;" vertex="1" parent="1">
          <mxGeometry x="-490" y="-40" width="60" height="50" as="geometry" />
        </mxCell>
        <mxCell id="u0kvqzSaH0CHyrP6EFvl-7" value="" style="rounded=0;whiteSpace=wrap;html=1;" vertex="1" parent="1">
          <mxGeometry x="-490" y="50" width="780" height="50" as="geometry" />
        </mxCell>
        <mxCell id="u0kvqzSaH0CHyrP6EFvl-8" value="网关" style="rounded=0;whiteSpace=wrap;html=1;" vertex="1" parent="1">
          <mxGeometry x="-490" y="50" width="60" height="50" as="geometry" />
        </mxCell>
        <mxCell id="u0kvqzSaH0CHyrP6EFvl-9" value="" style="rounded=0;whiteSpace=wrap;html=1;" vertex="1" parent="1">
          <mxGeometry x="-490" y="140" width="780" height="50" as="geometry" />
        </mxCell>
        <mxCell id="u0kvqzSaH0CHyrP6EFvl-10" value="ingress" style="rounded=0;whiteSpace=wrap;html=1;" vertex="1" parent="1">
          <mxGeometry x="-490" y="140" width="60" height="50" as="geometry" />
        </mxCell>
        <mxCell id="u0kvqzSaH0CHyrP6EFvl-11" value="" style="rounded=0;whiteSpace=wrap;html=1;movable=1;resizable=1;rotatable=1;deletable=1;editable=1;connectable=1;" vertex="1" parent="1">
          <mxGeometry x="-490" y="230" width="780" height="190" as="geometry" />
        </mxCell>
        <mxCell id="u0kvqzSaH0CHyrP6EFvl-98" style="edgeStyle=orthogonalEdgeStyle;curved=1;rounded=0;orthogonalLoop=1;jettySize=auto;html=1;exitX=0;exitY=0.5;exitDx=0;exitDy=0;entryX=1;entryY=0.5;entryDx=0;entryDy=0;" edge="1" parent="1" source="u0kvqzSaH0CHyrP6EFvl-12" target="u0kvqzSaH0CHyrP6EFvl-90">
          <mxGeometry relative="1" as="geometry" />
        </mxCell>
        <mxCell id="u0kvqzSaH0CHyrP6EFvl-99" style="edgeStyle=orthogonalEdgeStyle;curved=1;rounded=0;orthogonalLoop=1;jettySize=auto;html=1;entryX=1;entryY=0.75;entryDx=0;entryDy=0;" edge="1" parent="1" target="u0kvqzSaH0CHyrP6EFvl-91">
          <mxGeometry relative="1" as="geometry">
            <mxPoint x="-480" y="325" as="sourcePoint" />
          </mxGeometry>
        </mxCell>
        <mxCell id="u0kvqzSaH0CHyrP6EFvl-100" style="edgeStyle=orthogonalEdgeStyle;curved=1;rounded=0;orthogonalLoop=1;jettySize=auto;html=1;exitX=0;exitY=0.5;exitDx=0;exitDy=0;entryX=1;entryY=0.5;entryDx=0;entryDy=0;" edge="1" parent="1" source="u0kvqzSaH0CHyrP6EFvl-12" target="u0kvqzSaH0CHyrP6EFvl-92">
          <mxGeometry relative="1" as="geometry" />
        </mxCell>
        <mxCell id="u0kvqzSaH0CHyrP6EFvl-104" style="edgeStyle=orthogonalEdgeStyle;curved=1;rounded=0;orthogonalLoop=1;jettySize=auto;html=1;exitX=0;exitY=0.5;exitDx=0;exitDy=0;entryX=1;entryY=0.5;entryDx=0;entryDy=0;" edge="1" parent="1" source="u0kvqzSaH0CHyrP6EFvl-12" target="u0kvqzSaH0CHyrP6EFvl-93">
          <mxGeometry relative="1" as="geometry" />
        </mxCell>
        <mxCell id="u0kvqzSaH0CHyrP6EFvl-105" style="edgeStyle=orthogonalEdgeStyle;curved=1;rounded=0;orthogonalLoop=1;jettySize=auto;html=1;exitX=0;exitY=0.5;exitDx=0;exitDy=0;entryX=1;entryY=0.75;entryDx=0;entryDy=0;" edge="1" parent="1" source="u0kvqzSaH0CHyrP6EFvl-12" target="u0kvqzSaH0CHyrP6EFvl-94">
          <mxGeometry relative="1" as="geometry" />
        </mxCell>
        <mxCell id="u0kvqzSaH0CHyrP6EFvl-106" style="edgeStyle=orthogonalEdgeStyle;curved=1;rounded=0;orthogonalLoop=1;jettySize=auto;html=1;exitX=0;exitY=0.5;exitDx=0;exitDy=0;entryX=1;entryY=0.5;entryDx=0;entryDy=0;" edge="1" parent="1" source="u0kvqzSaH0CHyrP6EFvl-12" target="u0kvqzSaH0CHyrP6EFvl-95">
          <mxGeometry relative="1" as="geometry" />
        </mxCell>
        <mxCell id="u0kvqzSaH0CHyrP6EFvl-107" style="edgeStyle=orthogonalEdgeStyle;curved=1;rounded=0;orthogonalLoop=1;jettySize=auto;html=1;exitX=0;exitY=0.5;exitDx=0;exitDy=0;entryX=1;entryY=0.75;entryDx=0;entryDy=0;" edge="1" parent="1" source="u0kvqzSaH0CHyrP6EFvl-12" target="u0kvqzSaH0CHyrP6EFvl-96">
          <mxGeometry relative="1" as="geometry">
            <mxPoint x="-570" y="350" as="targetPoint" />
          </mxGeometry>
        </mxCell>
        <mxCell id="u0kvqzSaH0CHyrP6EFvl-108" style="edgeStyle=orthogonalEdgeStyle;curved=1;rounded=0;orthogonalLoop=1;jettySize=auto;html=1;exitX=0;exitY=0.5;exitDx=0;exitDy=0;entryX=1;entryY=0.25;entryDx=0;entryDy=0;" edge="1" parent="1" source="u0kvqzSaH0CHyrP6EFvl-12" target="u0kvqzSaH0CHyrP6EFvl-97">
          <mxGeometry relative="1" as="geometry" />
        </mxCell>
        <mxCell id="u0kvqzSaH0CHyrP6EFvl-12" value="业务服务" style="rounded=0;whiteSpace=wrap;html=1;" vertex="1" parent="1">
          <mxGeometry x="-490" y="230" width="60" height="190" as="geometry" />
        </mxCell>
        <mxCell id="u0kvqzSaH0CHyrP6EFvl-13" value="" style="rounded=0;whiteSpace=wrap;html=1;" vertex="1" parent="1">
          <mxGeometry x="-490" y="470" width="780" height="170" as="geometry" />
        </mxCell>
        <mxCell id="u0kvqzSaH0CHyrP6EFvl-14" value="中间件" style="rounded=0;whiteSpace=wrap;html=1;" vertex="1" parent="1">
          <mxGeometry x="-490" y="470" width="60" height="170" as="geometry" />
        </mxCell>
        <mxCell id="u0kvqzSaH0CHyrP6EFvl-15" value="" style="rounded=0;whiteSpace=wrap;html=1;" vertex="1" parent="1">
          <mxGeometry x="-400" y="-115" width="60" height="40" as="geometry" />
        </mxCell>
        <mxCell id="u0kvqzSaH0CHyrP6EFvl-16" value="" style="rounded=0;whiteSpace=wrap;html=1;" vertex="1" parent="1">
          <mxGeometry x="-320" y="-115" width="60" height="40" as="geometry" />
        </mxCell>
        <mxCell id="u0kvqzSaH0CHyrP6EFvl-17" value="" style="rounded=0;whiteSpace=wrap;html=1;" vertex="1" parent="1">
          <mxGeometry x="-230" y="-115" width="60" height="40" as="geometry" />
        </mxCell>
        <mxCell id="u0kvqzSaH0CHyrP6EFvl-18" value="" style="rounded=0;whiteSpace=wrap;html=1;" vertex="1" parent="1">
          <mxGeometry x="-150" y="-115" width="60" height="40" as="geometry" />
        </mxCell>
        <mxCell id="u0kvqzSaH0CHyrP6EFvl-19" value="" style="rounded=0;whiteSpace=wrap;html=1;" vertex="1" parent="1">
          <mxGeometry x="-70" y="-115" width="60" height="40" as="geometry" />
        </mxCell>
        <mxCell id="u0kvqzSaH0CHyrP6EFvl-20" value="" style="rounded=0;whiteSpace=wrap;html=1;" vertex="1" parent="1">
          <mxGeometry x="-350" y="-35" width="60" height="40" as="geometry" />
        </mxCell>
        <mxCell id="u0kvqzSaH0CHyrP6EFvl-21" value="" style="rounded=0;whiteSpace=wrap;html=1;" vertex="1" parent="1">
          <mxGeometry x="-220" y="-35" width="60" height="40" as="geometry" />
        </mxCell>
        <mxCell id="u0kvqzSaH0CHyrP6EFvl-22" value="" style="rounded=0;whiteSpace=wrap;html=1;" vertex="1" parent="1">
          <mxGeometry x="-280" y="55" width="60" height="40" as="geometry" />
        </mxCell>
        <mxCell id="u0kvqzSaH0CHyrP6EFvl-23" value="" style="rounded=0;whiteSpace=wrap;html=1;" vertex="1" parent="1">
          <mxGeometry x="-370" y="145" width="60" height="40" as="geometry" />
        </mxCell>
        <mxCell id="u0kvqzSaH0CHyrP6EFvl-24" value="" style="rounded=0;whiteSpace=wrap;html=1;" vertex="1" parent="1">
          <mxGeometry x="-200" y="145" width="60" height="40" as="geometry" />
        </mxCell>
        <mxCell id="u0kvqzSaH0CHyrP6EFvl-25" style="edgeStyle=none;rounded=0;orthogonalLoop=1;jettySize=auto;html=1;exitX=0;exitY=0.75;exitDx=0;exitDy=0;entryX=1;entryY=0.75;entryDx=0;entryDy=0;" edge="1" parent="1" source="u0kvqzSaH0CHyrP6EFvl-28" target="u0kvqzSaH0CHyrP6EFvl-48">
          <mxGeometry relative="1" as="geometry" />
        </mxCell>
        <mxCell id="u0kvqzSaH0CHyrP6EFvl-26" style="edgeStyle=none;rounded=0;orthogonalLoop=1;jettySize=auto;html=1;exitX=1;exitY=0.5;exitDx=0;exitDy=0;entryX=0;entryY=0.5;entryDx=0;entryDy=0;" edge="1" parent="1" source="u0kvqzSaH0CHyrP6EFvl-28" target="u0kvqzSaH0CHyrP6EFvl-36">
          <mxGeometry relative="1" as="geometry" />
        </mxCell>
        <mxCell id="u0kvqzSaH0CHyrP6EFvl-27" value="Http/MQ" style="edgeLabel;html=1;align=center;verticalAlign=middle;resizable=0;points=[];" vertex="1" connectable="0" parent="u0kvqzSaH0CHyrP6EFvl-26">
          <mxGeometry x="-0.2135" y="-2" relative="1" as="geometry">
            <mxPoint as="offset" />
          </mxGeometry>
        </mxCell>
        <mxCell id="u0kvqzSaH0CHyrP6EFvl-28" value="" style="rounded=0;whiteSpace=wrap;html=1;" vertex="1" parent="1">
          <mxGeometry x="-199" y="260" width="110" height="120" as="geometry" />
        </mxCell>
        <mxCell id="u0kvqzSaH0CHyrP6EFvl-29" value="springboot)" style="rounded=0;whiteSpace=wrap;html=1;" vertex="1" parent="1">
          <mxGeometry x="-199" y="260" width="110" height="30" as="geometry" />
        </mxCell>
        <mxCell id="u0kvqzSaH0CHyrP6EFvl-30" value="" style="rounded=0;whiteSpace=wrap;html=1;dashed=1;" vertex="1" parent="1">
          <mxGeometry x="-189" y="310" width="70" height="20" as="geometry" />
        </mxCell>
        <mxCell id="u0kvqzSaH0CHyrP6EFvl-31" value="" style="rounded=0;whiteSpace=wrap;html=1;dashed=1;" vertex="1" parent="1">
          <mxGeometry x="-179" y="320" width="70" height="20" as="geometry" />
        </mxCell>
        <mxCell id="u0kvqzSaH0CHyrP6EFvl-32" value="装企服务" style="rounded=0;whiteSpace=wrap;html=1;dashed=1;" vertex="1" parent="1">
          <mxGeometry x="-169" y="330" width="70" height="20" as="geometry" />
        </mxCell>
        <mxCell id="u0kvqzSaH0CHyrP6EFvl-33" style="edgeStyle=none;rounded=0;orthogonalLoop=1;jettySize=auto;html=1;exitX=0;exitY=0.75;exitDx=0;exitDy=0;" edge="1" parent="1" source="u0kvqzSaH0CHyrP6EFvl-36">
          <mxGeometry relative="1" as="geometry">
            <mxPoint x="-90" y="350" as="targetPoint" />
          </mxGeometry>
        </mxCell>
        <mxCell id="u0kvqzSaH0CHyrP6EFvl-34" style="edgeStyle=none;rounded=0;orthogonalLoop=1;jettySize=auto;html=1;exitX=1;exitY=0.5;exitDx=0;exitDy=0;" edge="1" parent="1" source="u0kvqzSaH0CHyrP6EFvl-36" target="u0kvqzSaH0CHyrP6EFvl-41">
          <mxGeometry relative="1" as="geometry" />
        </mxCell>
        <mxCell id="u0kvqzSaH0CHyrP6EFvl-35" value="Nacos-client" style="edgeLabel;html=1;align=center;verticalAlign=middle;resizable=0;points=[];" vertex="1" connectable="0" parent="u0kvqzSaH0CHyrP6EFvl-34">
          <mxGeometry x="0.0667" y="-1" relative="1" as="geometry">
            <mxPoint as="offset" />
          </mxGeometry>
        </mxCell>
        <mxCell id="u0kvqzSaH0CHyrP6EFvl-36" value="" style="rounded=0;whiteSpace=wrap;html=1;" vertex="1" parent="1">
          <mxGeometry y="260" width="110" height="120" as="geometry" />
        </mxCell>
        <mxCell id="u0kvqzSaH0CHyrP6EFvl-37" value="springboot)" style="rounded=0;whiteSpace=wrap;html=1;" vertex="1" parent="1">
          <mxGeometry y="260" width="110" height="30" as="geometry" />
        </mxCell>
        <mxCell id="u0kvqzSaH0CHyrP6EFvl-38" value="" style="rounded=0;whiteSpace=wrap;html=1;dashed=1;" vertex="1" parent="1">
          <mxGeometry x="10" y="310" width="70" height="20" as="geometry" />
        </mxCell>
        <mxCell id="u0kvqzSaH0CHyrP6EFvl-39" value="" style="rounded=0;whiteSpace=wrap;html=1;dashed=1;" vertex="1" parent="1">
          <mxGeometry x="20" y="320" width="70" height="20" as="geometry" />
        </mxCell>
        <mxCell id="u0kvqzSaH0CHyrP6EFvl-40" value="装企服务" style="rounded=0;whiteSpace=wrap;html=1;dashed=1;" vertex="1" parent="1">
          <mxGeometry x="30" y="330" width="70" height="20" as="geometry" />
        </mxCell>
        <mxCell id="u0kvqzSaH0CHyrP6EFvl-41" value="" style="rounded=0;whiteSpace=wrap;html=1;" vertex="1" parent="1">
          <mxGeometry x="170" y="260" width="110" height="120" as="geometry" />
        </mxCell>
        <mxCell id="u0kvqzSaH0CHyrP6EFvl-42" value="springboot)" style="rounded=0;whiteSpace=wrap;html=1;" vertex="1" parent="1">
          <mxGeometry x="170" y="260" width="110" height="30" as="geometry" />
        </mxCell>
        <mxCell id="u0kvqzSaH0CHyrP6EFvl-43" value="SIT" style="rounded=0;whiteSpace=wrap;html=1;dashed=1;" vertex="1" parent="1">
          <mxGeometry x="190" y="300" width="70" height="20" as="geometry" />
        </mxCell>
        <mxCell id="u0kvqzSaH0CHyrP6EFvl-44" value="PRE" style="rounded=0;whiteSpace=wrap;html=1;dashed=1;" vertex="1" parent="1">
          <mxGeometry x="190" y="327" width="70" height="20" as="geometry" />
        </mxCell>
        <mxCell id="u0kvqzSaH0CHyrP6EFvl-45" value="PRD" style="rounded=0;whiteSpace=wrap;html=1;dashed=1;" vertex="1" parent="1">
          <mxGeometry x="190" y="354" width="70" height="20" as="geometry" />
        </mxCell>
        <mxCell id="u0kvqzSaH0CHyrP6EFvl-46" style="edgeStyle=none;rounded=0;orthogonalLoop=1;jettySize=auto;html=1;exitX=1;exitY=0.5;exitDx=0;exitDy=0;entryX=0;entryY=0.5;entryDx=0;entryDy=0;" edge="1" parent="1" source="u0kvqzSaH0CHyrP6EFvl-48" target="u0kvqzSaH0CHyrP6EFvl-28">
          <mxGeometry relative="1" as="geometry">
            <mxPoint x="-210" y="320" as="targetPoint" />
          </mxGeometry>
        </mxCell>
        <mxCell id="u0kvqzSaH0CHyrP6EFvl-47" value="Http/MQ" style="edgeLabel;html=1;align=center;verticalAlign=middle;resizable=0;points=[];" vertex="1" connectable="0" parent="u0kvqzSaH0CHyrP6EFvl-46">
          <mxGeometry x="-0.0769" y="-1" relative="1" as="geometry">
            <mxPoint as="offset" />
          </mxGeometry>
        </mxCell>
        <mxCell id="u0kvqzSaH0CHyrP6EFvl-48" value="" style="rounded=0;whiteSpace=wrap;html=1;container=1;" vertex="1" parent="1">
          <mxGeometry x="-400" y="260" width="110" height="120" as="geometry" />
        </mxCell>
        <mxCell id="u0kvqzSaH0CHyrP6EFvl-49" value="springboot)" style="rounded=0;whiteSpace=wrap;html=1;" vertex="1" parent="1">
          <mxGeometry x="-400" y="260" width="110" height="30" as="geometry" />
        </mxCell>
        <mxCell id="u0kvqzSaH0CHyrP6EFvl-50" value="" style="rounded=0;whiteSpace=wrap;html=1;dashed=1;" vertex="1" parent="1">
          <mxGeometry x="-390" y="310" width="70" height="20" as="geometry" />
        </mxCell>
        <mxCell id="u0kvqzSaH0CHyrP6EFvl-51" value="" style="rounded=0;whiteSpace=wrap;html=1;dashed=1;" vertex="1" parent="1">
          <mxGeometry x="-380" y="320" width="70" height="20" as="geometry" />
        </mxCell>
        <mxCell id="u0kvqzSaH0CHyrP6EFvl-52" value="装企服务" style="rounded=0;whiteSpace=wrap;html=1;dashed=1;" vertex="1" parent="1">
          <mxGeometry x="-370" y="330" width="70" height="20" as="geometry" />
        </mxCell>
        <mxCell id="u0kvqzSaH0CHyrP6EFvl-53" style="edgeStyle=orthogonalEdgeStyle;curved=1;rounded=0;orthogonalLoop=1;jettySize=auto;html=1;exitX=0.5;exitY=1;exitDx=0;exitDy=0;entryX=0.5;entryY=0;entryDx=0;entryDy=0;" edge="1" parent="1" source="u0kvqzSaH0CHyrP6EFvl-58" target="u0kvqzSaH0CHyrP6EFvl-60">
          <mxGeometry relative="1" as="geometry" />
        </mxCell>
        <mxCell id="u0kvqzSaH0CHyrP6EFvl-54" style="edgeStyle=orthogonalEdgeStyle;curved=1;rounded=0;orthogonalLoop=1;jettySize=auto;html=1;exitX=0.5;exitY=1;exitDx=0;exitDy=0;" edge="1" parent="1" source="u0kvqzSaH0CHyrP6EFvl-58" target="u0kvqzSaH0CHyrP6EFvl-64">
          <mxGeometry relative="1" as="geometry" />
        </mxCell>
        <mxCell id="u0kvqzSaH0CHyrP6EFvl-55" style="edgeStyle=orthogonalEdgeStyle;curved=1;rounded=0;orthogonalLoop=1;jettySize=auto;html=1;exitX=0.5;exitY=1;exitDx=0;exitDy=0;" edge="1" parent="1" source="u0kvqzSaH0CHyrP6EFvl-58" target="u0kvqzSaH0CHyrP6EFvl-67">
          <mxGeometry relative="1" as="geometry" />
        </mxCell>
        <mxCell id="u0kvqzSaH0CHyrP6EFvl-56" style="edgeStyle=orthogonalEdgeStyle;curved=1;rounded=0;orthogonalLoop=1;jettySize=auto;html=1;exitX=0.5;exitY=1;exitDx=0;exitDy=0;entryX=0.5;entryY=0;entryDx=0;entryDy=0;" edge="1" parent="1" source="u0kvqzSaH0CHyrP6EFvl-58" target="u0kvqzSaH0CHyrP6EFvl-70">
          <mxGeometry relative="1" as="geometry" />
        </mxCell>
        <mxCell id="u0kvqzSaH0CHyrP6EFvl-57" style="edgeStyle=orthogonalEdgeStyle;curved=1;rounded=0;orthogonalLoop=1;jettySize=auto;html=1;exitX=0.5;exitY=1;exitDx=0;exitDy=0;" edge="1" parent="1" source="u0kvqzSaH0CHyrP6EFvl-58" target="u0kvqzSaH0CHyrP6EFvl-73">
          <mxGeometry relative="1" as="geometry" />
        </mxCell>
        <mxCell id="u0kvqzSaH0CHyrP6EFvl-58" value="业务应用" style="swimlane;dashed=1;movable=1;resizable=1;rotatable=1;deletable=1;editable=1;connectable=1;" vertex="1" parent="1">
          <mxGeometry x="-419" y="230" width="550" height="183.5" as="geometry" />
        </mxCell>
        <mxCell id="u0kvqzSaH0CHyrP6EFvl-59" value="" style="rounded=0;whiteSpace=wrap;html=1;container=1;" vertex="1" parent="1">
          <mxGeometry x="-390" y="500" width="110" height="120" as="geometry" />
        </mxCell>
        <mxCell id="u0kvqzSaH0CHyrP6EFvl-60" value="存储" style="rounded=0;whiteSpace=wrap;html=1;" vertex="1" parent="1">
          <mxGeometry x="-390" y="500" width="110" height="30" as="geometry" />
        </mxCell>
        <mxCell id="u0kvqzSaH0CHyrP6EFvl-61" value="" style="rounded=0;whiteSpace=wrap;html=1;dashed=1;" vertex="1" parent="1">
          <mxGeometry x="-370" y="550" width="70" height="20" as="geometry" />
        </mxCell>
        <mxCell id="u0kvqzSaH0CHyrP6EFvl-62" value="" style="rounded=0;whiteSpace=wrap;html=1;dashed=1;" vertex="1" parent="1">
          <mxGeometry x="-370" y="580" width="70" height="20" as="geometry" />
        </mxCell>
        <mxCell id="u0kvqzSaH0CHyrP6EFvl-63" value="" style="rounded=0;whiteSpace=wrap;html=1;container=1;" vertex="1" parent="1">
          <mxGeometry x="-260" y="500" width="110" height="120" as="geometry" />
        </mxCell>
        <mxCell id="u0kvqzSaH0CHyrP6EFvl-64" value="存储" style="rounded=0;whiteSpace=wrap;html=1;" vertex="1" parent="1">
          <mxGeometry x="-260" y="500" width="110" height="30" as="geometry" />
        </mxCell>
        <mxCell id="u0kvqzSaH0CHyrP6EFvl-65" value="" style="rounded=0;whiteSpace=wrap;html=1;dashed=1;" vertex="1" parent="1">
          <mxGeometry x="-240" y="550" width="70" height="20" as="geometry" />
        </mxCell>
        <mxCell id="u0kvqzSaH0CHyrP6EFvl-66" value="" style="rounded=0;whiteSpace=wrap;html=1;container=1;" vertex="1" parent="1">
          <mxGeometry x="-130" y="500" width="110" height="120" as="geometry" />
        </mxCell>
        <mxCell id="u0kvqzSaH0CHyrP6EFvl-67" value="存储" style="rounded=0;whiteSpace=wrap;html=1;" vertex="1" parent="1">
          <mxGeometry x="-130" y="500" width="110" height="30" as="geometry" />
        </mxCell>
        <mxCell id="u0kvqzSaH0CHyrP6EFvl-68" value="" style="rounded=0;whiteSpace=wrap;html=1;dashed=1;" vertex="1" parent="1">
          <mxGeometry x="-110" y="550" width="70" height="20" as="geometry" />
        </mxCell>
        <mxCell id="u0kvqzSaH0CHyrP6EFvl-69" value="" style="rounded=0;whiteSpace=wrap;html=1;container=1;" vertex="1" parent="1">
          <mxGeometry y="500" width="110" height="120" as="geometry" />
        </mxCell>
        <mxCell id="u0kvqzSaH0CHyrP6EFvl-70" value="存储" style="rounded=0;whiteSpace=wrap;html=1;" vertex="1" parent="1">
          <mxGeometry y="500" width="110" height="30" as="geometry" />
        </mxCell>
        <mxCell id="u0kvqzSaH0CHyrP6EFvl-71" value="" style="rounded=0;whiteSpace=wrap;html=1;dashed=1;" vertex="1" parent="1">
          <mxGeometry x="20" y="550" width="70" height="20" as="geometry" />
        </mxCell>
        <mxCell id="u0kvqzSaH0CHyrP6EFvl-72" value="" style="rounded=0;whiteSpace=wrap;html=1;container=1;" vertex="1" parent="1">
          <mxGeometry x="130" y="500" width="110" height="120" as="geometry" />
        </mxCell>
        <mxCell id="u0kvqzSaH0CHyrP6EFvl-73" value="存储" style="rounded=0;whiteSpace=wrap;html=1;" vertex="1" parent="1">
          <mxGeometry x="130" y="500" width="110" height="30" as="geometry" />
        </mxCell>
        <mxCell id="u0kvqzSaH0CHyrP6EFvl-74" value="" style="rounded=0;whiteSpace=wrap;html=1;dashed=1;" vertex="1" parent="1">
          <mxGeometry x="150" y="550" width="70" height="20" as="geometry" />
        </mxCell>
        <mxCell id="u0kvqzSaH0CHyrP6EFvl-75" value="" style="rounded=0;whiteSpace=wrap;html=1;" vertex="1" parent="1">
          <mxGeometry x="-490" y="660" width="780" height="170" as="geometry" />
        </mxCell>
        <mxCell id="u0kvqzSaH0CHyrP6EFvl-76" value="中间件" style="rounded=0;whiteSpace=wrap;html=1;" vertex="1" parent="1">
          <mxGeometry x="-490" y="660" width="60" height="170" as="geometry" />
        </mxCell>
        <mxCell id="u0kvqzSaH0CHyrP6EFvl-77" value="" style="rounded=0;whiteSpace=wrap;html=1;container=1;" vertex="1" parent="1">
          <mxGeometry x="-400" y="670" width="130" height="130" as="geometry" />
        </mxCell>
        <mxCell id="u0kvqzSaH0CHyrP6EFvl-78" value="" style="outlineConnect=0;dashed=0;verticalLabelPosition=bottom;verticalAlign=top;align=center;html=1;shape=mxgraph.aws3.ecs;fillColor=#F58534;gradientColor=none;" vertex="1" parent="u0kvqzSaH0CHyrP6EFvl-77">
          <mxGeometry x="37.266666666666666" y="53.733333333333334" width="62.400000000000006" height="58.5" as="geometry" />
        </mxCell>
        <mxCell id="u0kvqzSaH0CHyrP6EFvl-79" value="ECS" style="rounded=0;whiteSpace=wrap;html=1;" vertex="1" parent="1">
          <mxGeometry x="-400" y="670" width="110" height="30" as="geometry" />
        </mxCell>
        <mxCell id="u0kvqzSaH0CHyrP6EFvl-80" value="" style="rounded=0;whiteSpace=wrap;html=1;container=1;" vertex="1" parent="1">
          <mxGeometry x="130" y="690" width="110" height="120" as="geometry" />
        </mxCell>
        <mxCell id="u0kvqzSaH0CHyrP6EFvl-81" value="" style="points=[[0,0,0],[0.25,0,0],[0.5,0,0],[0.75,0,0],[1,0,0],[0,1,0],[0.25,1,0],[0.5,1,0],[0.75,1,0],[1,1,0],[0,0.25,0],[0,0.5,0],[0,0.75,0],[1,0.25,0],[1,0.5,0],[1,0.75,0]];outlineConnect=0;fontColor=#232F3E;gradientColor=#4D72F3;gradientDirection=north;fillColor=#3334B9;strokeColor=#ffffff;dashed=0;verticalLabelPosition=bottom;verticalAlign=top;align=center;html=1;fontSize=12;fontStyle=0;aspect=fixed;shape=mxgraph.aws4.resourceIcon;resIcon=mxgraph.aws4.rds;" vertex="1" parent="u0kvqzSaH0CHyrP6EFvl-80">
          <mxGeometry x="26" y="41" width="59" height="59" as="geometry" />
        </mxCell>
        <mxCell id="u0kvqzSaH0CHyrP6EFvl-82" value="存储" style="rounded=0;whiteSpace=wrap;html=1;" vertex="1" parent="1">
          <mxGeometry x="130" y="690" width="110" height="30" as="geometry" />
        </mxCell>
        <mxCell id="u0kvqzSaH0CHyrP6EFvl-84" value="研发平台" style="swimlane;" vertex="1" parent="1">
          <mxGeometry x="-680" y="-170" width="130" height="200" as="geometry" />
        </mxCell>
        <mxCell id="u0kvqzSaH0CHyrP6EFvl-86" value="IDEA" style="rounded=0;whiteSpace=wrap;html=1;" vertex="1" parent="u0kvqzSaH0CHyrP6EFvl-84">
          <mxGeometry x="10" y="50" width="100" height="20" as="geometry" />
        </mxCell>
        <mxCell id="u0kvqzSaH0CHyrP6EFvl-85" value="第三方接入" style="swimlane;" vertex="1" parent="1">
          <mxGeometry x="-730" y="130" width="130" height="780" as="geometry" />
        </mxCell>
        <mxCell id="u0kvqzSaH0CHyrP6EFvl-88" value="WEB STORME" style="rounded=0;whiteSpace=wrap;html=1;" vertex="1" parent="1">
          <mxGeometry x="-670" y="-80" width="100" height="20" as="geometry" />
        </mxCell>
        <mxCell id="u0kvqzSaH0CHyrP6EFvl-90" value="通知渠道" style="rounded=0;whiteSpace=wrap;html=1;" vertex="1" parent="1">
          <mxGeometry x="-720" y="170" width="100" height="20" as="geometry" />
        </mxCell>
        <mxCell id="u0kvqzSaH0CHyrP6EFvl-91" value="支付渠道" style="rounded=0;whiteSpace=wrap;html=1;" vertex="1" parent="1">
          <mxGeometry x="-720" y="210" width="100" height="20" as="geometry" />
        </mxCell>
        <mxCell id="u0kvqzSaH0CHyrP6EFvl-92" value="快递渠道" style="rounded=0;whiteSpace=wrap;html=1;" vertex="1" parent="1">
          <mxGeometry x="-720" y="250" width="100" height="20" as="geometry" />
        </mxCell>
        <mxCell id="u0kvqzSaH0CHyrP6EFvl-93" value="E.sign" style="rounded=0;whiteSpace=wrap;html=1;" vertex="1" parent="1">
          <mxGeometry x="-720" y="290" width="100" height="20" as="geometry" />
        </mxCell>
        <mxCell id="u0kvqzSaH0CHyrP6EFvl-94" value="天眼查" style="rounded=0;whiteSpace=wrap;html=1;" vertex="1" parent="1">
          <mxGeometry x="-720" y="330" width="100" height="20" as="geometry" />
        </mxCell>
        <mxCell id="u0kvqzSaH0CHyrP6EFvl-95" value="魔看监控" style="rounded=0;whiteSpace=wrap;html=1;" vertex="1" parent="1">
          <mxGeometry x="-720" y="370" width="100" height="20" as="geometry" />
        </mxCell>
        <mxCell id="u0kvqzSaH0CHyrP6EFvl-96" value="钉钉告警" style="rounded=0;whiteSpace=wrap;html=1;" vertex="1" parent="1">
          <mxGeometry x="-720" y="410" width="100" height="20" as="geometry" />
        </mxCell>
        <mxCell id="u0kvqzSaH0CHyrP6EFvl-97" value="数据打点" style="rounded=0;whiteSpace=wrap;html=1;" vertex="1" parent="1">
          <mxGeometry x="-720" y="450" width="100" height="20" as="geometry" />
        </mxCell>
      </root>
    </mxGraphModel>
  </diagram>
</mxfile>
